<svg width="200" height="120" viewBox="0 0 200 120" fill="none" xmlns="http://www.w3.org/2000/svg">
<rect width="200" height="120" fill="#1E1E1E"/>
<g clip-path="url(#clip0_0_1)">
<rect width="1920" height="1257" transform="translate(-1436 -628)" fill="#FAFAFB"/>
<rect x="-1436" y="-628" width="1920" height="1257" fill="#D76904" fill-opacity="0.4"/>
<rect x="-1230" y="-387" width="1496" height="776" rx="20" fill="white"/>
<path d="M0 80L0 100C0 111.046 8.95431 120 20 120H180C191.046 120 200 111.046 200 100V80L0 80Z" fill="#00B0FF"/>
<rect y="40" width="200" height="40" fill="#FFDE00"/>
<path d="M20 0C8.95431 0 0 8.95431 0 20L0 40L200 40V20C200 8.95431 191.046 0 180 0L20 0Z" fill="#FF0085"/>
</g>
<defs>
<clipPath id="clip0_0_1">
<rect width="1920" height="1257" fill="white" transform="translate(-1436 -628)"/>
</clipPath>
</defs>
</svg>
