<svg width="206" height="120" viewBox="0 0 206 120" fill="none" xmlns="http://www.w3.org/2000/svg">
<rect width="206" height="120" fill="#1E1E1E"/>
<g clip-path="url(#clip0_0_1)">
<rect width="1920" height="1257" transform="translate(-1144 -628)" fill="#FAFAFB"/>
<rect x="-1144" y="-628" width="1920" height="1257" fill="#D76904" fill-opacity="0.4"/>
<rect x="-924" y="-404" width="1496" height="776" rx="20" fill="white"/>
<rect x="3" y="51.4285" width="200" height="17.1429" fill="#9FFE83"/>
<path d="M3 68.5714L203 68.5714V85.7142L3 85.7142L3 68.5714Z" fill="white"/>
<path d="M3 34.2856L203 34.2856V51.4285L3 51.4285L3 34.2856Z" fill="white"/>
<path d="M3 85.7143L3 100C3 100.97 3.06906 101.924 3.20254 102.857L202.797 102.857C202.931 101.924 203 100.97 203 100V85.7143L3 85.7143Z" fill="#BBBBBB"/>
<path d="M3.20254 17.1428C3.06906 18.076 3 19.0299 3 20L3 34.2857L203 34.2857V20C203 19.0299 202.931 18.076 202.797 17.1428L3.20254 17.1428Z" fill="#BBBBBB"/>
<path d="M23.0001 120L183 120C193.076 120 201.411 112.549 202.798 102.857L3.20264 102.857C4.58901 112.549 12.9245 120 23.0001 120Z" fill="black"/>
<path d="M183 0L23.0001 0C12.9245 0 4.58901 7.45059 3.20264 17.1429L202.798 17.1429C201.411 7.45059 193.076 0 183 0Z" fill="black"/>
</g>
<defs>
<clipPath id="clip0_0_1">
<rect width="1920" height="1257" fill="white" transform="translate(-1144 -628)"/>
</clipPath>
</defs>
</svg>
