<svg width="200" height="120" viewBox="0 0 200 120" fill="none" xmlns="http://www.w3.org/2000/svg">
<rect width="200" height="120" fill="#1E1E1E"/>
<g clip-path="url(#clip0_0_1)">
<rect width="1920" height="1257" transform="translate(-563 -628)" fill="#FAFAFB"/>
<rect x="-563" y="-628" width="1920" height="1257" fill="#D76904" fill-opacity="0.4"/>
<rect x="-357" y="-387" width="1496" height="776" rx="20" fill="white"/>
<rect y="48" width="200" height="24" fill="white"/>
<path d="M0 72L200 72V96L0 96L0 72Z" fill="#84828A"/>
<path d="M0 24L200 24V48L0 48L0 24Z" fill="#84828A"/>
<path d="M20 0C8.95431 0 0 8.95431 0 20L0 24L200 24V20C200 8.95431 191.046 0 180 0L20 0Z" fill="black"/>
<path d="M200 96L0 96L0 100C0 111.046 8.95431 120 20 120L180 120C191.046 120 200 111.046 200 100V96Z" fill="black"/>
<path d="M78 80H119V82.5C119 93.8218 109.822 103 98.5 103C87.1782 103 78 93.8218 78 82.5V80Z" fill="url(#paint0_linear_0_1)"/>
<ellipse cx="98.5" cy="65" rx="31.5" ry="27" fill="url(#paint1_linear_0_1)"/>
<ellipse cx="8.62651" cy="7.83936" rx="8.62651" ry="7.83936" transform="matrix(-0.902754 -0.430157 -0.485394 0.874295 125.682 66.3225)" fill="#4D4D4D"/>
<path fill-rule="evenodd" clip-rule="evenodd" d="M102.389 74.5193C100.707 71.8211 96.7791 71.8211 95.0975 74.5193C93.5022 77.0791 94.9809 80.3154 97.7244 80.9688C98.0521 80.1431 99.2955 80.1551 99.5966 81.0047C102.445 80.4444 104.016 77.1301 102.389 74.5193Z" fill="#646464"/>
<mask id="mask0_0_1" style="mask-type:alpha" maskUnits="userSpaceOnUse" x="67" y="38" width="63" height="55">
<ellipse cx="98.7431" cy="65.2754" rx="31.0962" ry="26.9043" fill="#D9D9D9"/>
</mask>
<g mask="url(#mask0_0_1)">
<path fill-rule="evenodd" clip-rule="evenodd" d="M115.774 63.5457C120.859 62.2416 125.997 61.8204 127.599 61.7786L127.076 41.7854C124.263 41.8589 117.6 42.4302 110.806 44.1725C103.596 46.0213 91.4937 51.9171 86.8365 54.3161L86.8461 54.3348L75.0258 60.4501L74.7744 60.5802L74.5308 60.7242C72.9203 61.6765 70.4541 63.2362 68.11 64.9349C66.9384 65.7839 65.6834 66.7497 64.5389 67.7568C63.5265 68.6476 62.0488 70.0432 60.908 71.7726L77.6029 82.7853C77.4483 83.0196 77.3348 83.1543 77.309 83.1849C77.3052 83.1893 77.3033 83.1915 77.3034 83.1916C77.3035 83.1917 77.3057 83.1894 77.3102 83.1847C77.34 83.1538 77.4713 83.0175 77.7506 82.7717C78.2596 82.3239 78.9727 81.7624 79.8459 81.1296C81.4826 79.9435 83.2817 78.7952 84.4801 78.0769L97.9768 71.0944L97.9766 71.0941C103.309 68.4419 111.66 64.6004 115.774 63.5457Z" fill="url(#paint2_linear_0_1)"/>
</g>
<path fill-rule="evenodd" clip-rule="evenodd" d="M94.1867 63.0844C93.779 61.0595 93.0264 59.0396 91.9718 57.1401L87.0237 59.4979L88.1543 63.2544L84.893 60.5132L80.6971 62.5125L69.4224 67.8848C70.4769 69.7843 71.8128 71.5262 73.3537 73.0112C74.8946 74.4961 76.6104 75.6949 78.403 76.5392C80.1956 77.3834 82.0301 77.8566 83.8016 77.9317C85.573 78.0068 87.2469 77.6824 88.7275 76.9769C90.2081 76.2714 91.4665 75.1986 92.4309 73.8199C93.3952 72.4412 94.0466 70.7835 94.3479 68.9415C94.6492 67.0995 94.5944 65.1092 94.1867 63.0844Z" fill="#444141"/>
<path d="M67 52C67 43.2479 70.4768 34.8542 76.6655 28.6655C82.8542 22.4768 91.2479 19 100 19C108.752 19 117.146 22.4768 123.335 28.6655C129.523 34.8542 133 43.2479 133 52L100 52L67 52Z" fill="url(#paint3_linear_0_1)"/>
<rect width="5.88284" height="2.14393" rx="1.07196" transform="matrix(0.733578 0.679605 -0.733578 0.679605 102.496 30.9751)" fill="#D9D9D9"/>
<rect width="5.88234" height="2.14393" rx="1.07196" transform="matrix(-0.733578 0.679605 -0.733578 -0.679605 96.5891 32.4395)" fill="#D9D9D9"/>
<rect width="5.58972" height="2.14393" rx="1.07196" transform="matrix(-0.733578 0.679605 -0.733578 -0.679605 106.368 24.7617)" fill="#D9D9D9"/>
<rect width="5.58972" height="2.14393" rx="1.07196" transform="matrix(0.733578 0.679605 -0.733578 0.679605 92.7173 23.6138)" fill="#D9D9D9"/>
<path fill-rule="evenodd" clip-rule="evenodd" d="M104.267 30.2075C104.267 33.0525 101.778 35.3589 98.7068 35.3589C95.6359 35.3589 93.1464 33.0525 93.1464 30.2075C93.1464 27.3625 95.6359 25.0562 98.7068 25.0562C101.778 25.0562 104.267 27.3625 104.267 30.2075ZM98.0396 30.362C98.0396 31.1302 97.3674 31.7529 96.5383 31.7529C95.7091 31.7529 95.037 31.1302 95.037 30.362C95.037 29.5939 95.7091 28.9711 96.5383 28.9711C97.3674 28.9711 98.0396 29.5939 98.0396 30.362ZM100.987 31.7529C101.816 31.7529 102.488 31.1302 102.488 30.362C102.488 29.5939 101.816 28.9711 100.987 28.9711C100.157 28.9711 99.4853 29.5939 99.4853 30.362C99.4853 31.1302 100.157 31.7529 100.987 31.7529Z" fill="#D9D9D9"/>
<rect x="95.0763" y="32.5762" width="7.32725" height="3.80799" rx="1.90399" fill="#D9D9D9"/>
<path fill-rule="evenodd" clip-rule="evenodd" d="M142.494 50.8941C144.805 47.5099 145.995 43.8828 145.995 40.2197H100.001L54.0061 40.2197C54.0061 43.8828 55.1958 47.5099 57.5072 50.8941C59.6584 54.0437 62.742 56.9255 66.6021 59.3978H133.399C137.259 56.9255 140.343 54.0437 142.494 50.8941Z" fill="url(#paint4_linear_0_1)"/>
<rect x="54" y="38" width="92" height="3" fill="#FEB342"/>
</g>
<defs>
<linearGradient id="paint0_linear_0_1" x1="98.5" y1="80" x2="98.5" y2="103" gradientUnits="userSpaceOnUse">
<stop stop-color="#C6C6C6"/>
<stop offset="0.578125" stop-color="#D9D9D9"/>
</linearGradient>
<linearGradient id="paint1_linear_0_1" x1="98.5" y1="38" x2="98.5" y2="92" gradientUnits="userSpaceOnUse">
<stop stop-color="#989898"/>
<stop offset="1" stop-color="#E4E4E4"/>
</linearGradient>
<linearGradient id="paint2_linear_0_1" x1="99.3412" y1="52.6907" x2="55.0228" y2="74.2712" gradientUnits="userSpaceOnUse">
<stop stop-color="#444141"/>
<stop offset="1" stop-color="#444141" stop-opacity="0.76"/>
</linearGradient>
<linearGradient id="paint3_linear_0_1" x1="100.09" y1="87.145" x2="100.015" y2="19" gradientUnits="userSpaceOnUse">
<stop/>
<stop offset="0.7925" stop-color="#45433B"/>
<stop offset="1" stop-color="#5F5D58"/>
</linearGradient>
<linearGradient id="paint4_linear_0_1" x1="100.001" y1="12.3261" x2="100.001" y2="68.1133" gradientUnits="userSpaceOnUse">
<stop offset="0.449057" stop-color="#504F4C"/>
<stop offset="0.80816" stop-color="#2F2D28"/>
</linearGradient>
<clipPath id="clip0_0_1">
<rect width="1920" height="1257" fill="white" transform="translate(-563 -628)"/>
</clipPath>
</defs>
</svg>
