<svg width="200" height="120" viewBox="0 0 200 120" fill="none" xmlns="http://www.w3.org/2000/svg">
<rect width="200" height="120" fill="#1E1E1E"/>
<g clip-path="url(#clip0_0_1)">
<rect width="1920" height="1257" transform="translate(-1147 -433)" fill="#FAFAFB"/>
<rect x="-1147" y="-433" width="1920" height="1257" fill="#D76904" fill-opacity="0.4"/>
<rect x="-927" y="-209" width="1496" height="776" rx="20" fill="white"/>
<g filter="url(#filter0_d_0_1)">
<path d="M100 84C113.255 84 124 73.2548 124 60C124 46.7452 113.255 36 100 36C86.7452 36 76 46.7452 76 60C76 73.2548 86.7452 84 100 84Z" fill="black"/>
<path fill-rule="evenodd" clip-rule="evenodd" d="M20 0C8.95431 0 0 8.95431 0 20L0 100C0 111.046 8.95431 120 20 120L180 120C191.046 120 200 111.046 200 100V20C200 8.95431 191.046 0 180 0L20 0ZM100 94C118.778 94 134 78.7777 134 60C134 41.2223 118.778 26 100 26C81.2223 26 66 41.2223 66 60C66 78.7777 81.2223 94 100 94Z" fill="black"/>
<path fill-rule="evenodd" clip-rule="evenodd" d="M100 94C118.778 94 134 78.7777 134 60C134 41.2223 118.778 26 100 26C81.2223 26 66 41.2223 66 60C66 78.7777 81.2223 94 100 94ZM100 84C113.255 84 124 73.2548 124 60C124 46.7452 113.255 36 100 36C86.7452 36 76 46.7452 76 60C76 73.2548 86.7452 84 100 84Z" fill="#EAECF0"/>
</g>
<path fill-rule="evenodd" clip-rule="evenodd" d="M138 94C156.778 94 172 78.7777 172 60C172 41.2223 156.778 26 138 26C119.222 26 104 41.2223 104 60C104 78.7777 119.222 94 138 94ZM138 84C151.255 84 162 73.2548 162 60C162 46.7452 151.255 36 138 36C124.745 36 114 46.7452 114 60C114 73.2548 124.745 84 138 84Z" fill="#EAECF0"/>
<path fill-rule="evenodd" clip-rule="evenodd" d="M62 94C80.7777 94 96 78.7777 96 60C96 41.2223 80.7777 26 62 26C43.2223 26 28 41.2223 28 60C28 78.7777 43.2223 94 62 94ZM62 84C75.2548 84 86 73.2548 86 60C86 46.7452 75.2548 36 62 36C48.7452 36 38 46.7452 38 60C38 73.2548 48.7452 84 62 84Z" fill="#EAECF0"/>
</g>
<defs>
<filter id="filter0_d_0_1" x="-10" y="-10" width="220" height="140" filterUnits="userSpaceOnUse" color-interpolation-filters="sRGB">
<feFlood flood-opacity="0" result="BackgroundImageFix"/>
<feColorMatrix in="SourceAlpha" type="matrix" values="0 0 0 0 0 0 0 0 0 0 0 0 0 0 0 0 0 0 127 0" result="hardAlpha"/>
<feOffset/>
<feGaussianBlur stdDeviation="5"/>
<feComposite in2="hardAlpha" operator="out"/>
<feColorMatrix type="matrix" values="0 0 0 0 0 0 0 0 0 0 0 0 0 0 0 0 0 0 0.12 0"/>
<feBlend mode="normal" in2="BackgroundImageFix" result="effect1_dropShadow_0_1"/>
<feBlend mode="normal" in="SourceGraphic" in2="effect1_dropShadow_0_1" result="shape"/>
</filter>
<clipPath id="clip0_0_1">
<rect width="1920" height="1257" fill="white" transform="translate(-1147 -433)"/>
</clipPath>
</defs>
</svg>
