<svg width="200" height="120" viewBox="0 0 200 120" fill="none" xmlns="http://www.w3.org/2000/svg">
<rect width="200" height="120" fill="#1E1E1E"/>
<g clip-path="url(#clip0_0_1)">
<rect width="1920" height="1257" transform="translate(-271 -433)" fill="#FAFAFB"/>
<rect x="-271" y="-433" width="1920" height="1257" fill="#D76904" fill-opacity="0.4"/>
<rect x="-65" y="-192" width="1496" height="776" rx="20" fill="white"/>
<path d="M0 96L0 100C0 111.046 8.95431 120 20 120L180 120C191.046 120 200 111.046 200 100V96L0 96Z" fill="black"/>
<rect y="72" width="200" height="24" fill="#ABABAB"/>
<rect y="48" width="200" height="24" fill="white"/>
<rect y="24" width="200" height="24" fill="#8CD976"/>
<path d="M20 0C8.95431 0 0 8.95431 0 20L0 24L200 24V20C200 8.95431 191.046 0 180 0L20 0Z" fill="#00B043"/>
<path fill-rule="evenodd" clip-rule="evenodd" d="M100 94C118.778 94 134 78.7777 134 60C134 41.2223 118.778 26 100 26C81.2223 26 66 41.2223 66 60C66 78.7777 81.2223 94 100 94ZM100 94C113.255 94 124 73.2548 124 60C124 46.7452 113.255 26 100 26C86.7452 26 76 46.7452 76 60C76 73.2548 86.7452 94 100 94Z" fill="#00AD30"/>
</g>
<defs>
<clipPath id="clip0_0_1">
<rect width="1920" height="1257" fill="white" transform="translate(-271 -433)"/>
</clipPath>
</defs>
</svg>
