<svg width="200" height="120" viewBox="0 0 200 120" fill="none" xmlns="http://www.w3.org/2000/svg">
<rect width="200" height="120" fill="#1E1E1E"/>
<g clip-path="url(#clip0_0_1)">
<rect width="1920" height="1257" transform="translate(-271 -628)" fill="#FAFAFB"/>
<rect x="-271" y="-628" width="1920" height="1257" fill="#D76904" fill-opacity="0.4"/>
<rect x="-65" y="-387" width="1496" height="776" rx="20" fill="white"/>
<rect y="51.4285" width="200" height="17.1429" fill="#D64BC2"/>
<path d="M0 68.5714L200 68.5714V85.7142L0 85.7142L0 68.5714Z" fill="white"/>
<path d="M0 34.2856L200 34.2856V51.4285L0 51.4285L0 34.2856Z" fill="white"/>
<path d="M0 85.7143L0 100C0 100.97 0.069063 101.924 0.20254 102.857L199.797 102.857C199.931 101.924 200 100.97 200 100V85.7143L0 85.7143Z" fill="#BBBBBB"/>
<path d="M0.202541 17.1428C0.0690631 18.076 0 19.0299 0 20L0 34.2857L200 34.2857V20C200 19.0299 199.931 18.076 199.797 17.1428L0.202541 17.1428Z" fill="#BBBBBB"/>
<path d="M20 120L180 120C190.076 120 198.411 112.549 199.797 102.857L0.202515 102.857C1.58888 112.549 9.92435 120 20 120Z" fill="#00B3FF"/>
<path d="M180 0L20 0C9.92434 0 1.58889 7.45059 0.202515 17.1429L199.797 17.1429C198.411 7.45059 190.076 0 180 0Z" fill="#00B3FF"/>
</g>
<defs>
<clipPath id="clip0_0_1">
<rect width="1920" height="1257" fill="white" transform="translate(-271 -628)"/>
</clipPath>
</defs>
</svg>
