<svg width="220" height="140" viewBox="0 0 220 140" fill="none" xmlns="http://www.w3.org/2000/svg">
<g filter="url(#filter0_d_565_2837)">
<path d="M16.4845 15.2578C12.4987 18.9139 10 24.1652 10 30.0001L10 110C10 115.835 12.4987 121.086 16.4845 124.742L84 70.0001L16.4845 15.2578Z" fill="black"/>
<path d="M30 130H190C201.046 130 210 121.046 210 110V82L69.2 82L16.4845 124.742C20.0439 128.007 24.7892 130 30 130Z" fill="#D3D3D3"/>
<path d="M69.2 58L84 70L69.2 82H210V58L69.2 58Z" fill="#7D0070"/>
<path d="M210 58V30C210 18.9543 201.046 10 190 10L30 10C24.7892 10 20.0439 11.9927 16.4845 15.2577L69.2 58L210 58Z" fill="white"/>
</g>
<defs>
<filter id="filter0_d_565_2837" x="0" y="0" width="220" height="140" filterUnits="userSpaceOnUse" color-interpolation-filters="sRGB">
<feFlood flood-opacity="0" result="BackgroundImageFix"/>
<feColorMatrix in="SourceAlpha" type="matrix" values="0 0 0 0 0 0 0 0 0 0 0 0 0 0 0 0 0 0 127 0" result="hardAlpha"/>
<feOffset/>
<feGaussianBlur stdDeviation="5"/>
<feComposite in2="hardAlpha" operator="out"/>
<feColorMatrix type="matrix" values="0 0 0 0 0 0 0 0 0 0 0 0 0 0 0 0 0 0 0.12 0"/>
<feBlend mode="normal" in2="BackgroundImageFix" result="effect1_dropShadow_565_2837"/>
<feBlend mode="normal" in="SourceGraphic" in2="effect1_dropShadow_565_2837" result="shape"/>
</filter>
</defs>
</svg>
